<svg width="24" height="24" viewBox="0 0 24 24" fill="none" xmlns="http://www.w3.org/2000/svg">
<path d="M19.75 6.25L22 7L19.75 7.75L19 10L18.25 7.75L16 7L18.25 6.25L19 4L19.75 6.25Z" fill="#0B1532"/>
<path d="M2 15C2 14.4477 2.44772 14 3 14H6C6.55228 14 7 14.4477 7 15V19C7 19.5523 6.55228 20 6 20H3C2.44772 20 2 19.5523 2 19V15Z" fill="#0B1532"/>
<path d="M9 8C9 7.44772 9.44772 7 10 7L13 7C13.5523 7 14 7.44772 14 8V19C14 19.5523 13.5523 20 13 20H10C9.44772 20 9 19.5523 9 19V8Z" fill="#0B1532"/>
<path d="M16 13C16 12.4477 16.4477 12 17 12H20C20.5523 12 21 12.4477 21 13V19C21 19.5523 20.5523 20 20 20H17C16.4477 20 16 19.5523 16 19V13Z" fill="#0B1532"/>
</svg>
