<svg width="24" height="24" viewBox="0 0 24 24" fill="none" xmlns="http://www.w3.org/2000/svg">
<path fill-rule="evenodd" clip-rule="evenodd" d="M19 4C20.6569 4 22 5.34315 22 7V17C22 18.6051 20.7394 19.9158 19.1543 19.9961L19 20H5L4.8457 19.9961C3.26055 19.9158 2 18.6051 2 17V7C2 5.34315 3.34315 4 5 4H19ZM4 11V17C4 17.5523 4.44772 18 5 18H19C19.5523 18 20 17.5523 20 17V11H4ZM5 6C4.44772 6 4 6.44772 4 7V8H20V7C20 6.44771 19.5523 6 19 6H5Z" fill="#0B1532"/>
<path d="M14.5 14C15.3284 14 16 14.6716 16 15.5C16 16.3284 15.3284 17 14.5 17C13.6716 17 13 16.3284 13 15.5C13 14.6716 13.6716 14 14.5 14Z" fill="#0B1532"/>
<path d="M17.5 14C18.3284 14 19 14.6716 19 15.5C19 16.3284 18.3284 17 17.5 17C16.6716 17 16 16.3284 16 15.5C16 14.6716 16.6716 14 17.5 14Z" fill="#0B1532"/>
</svg>
