<svg width="24" height="24" viewBox="0 0 24 24" fill="none" xmlns="http://www.w3.org/2000/svg">
<path d="M18.2978 4.29197C18.6872 3.90267 19.3187 3.90268 19.708 4.29197C20.0973 4.68129 20.0973 5.31282 19.708 5.70213L13.4101 12L19.708 18.2978C20.0973 18.6871 20.0973 19.3187 19.708 19.708C19.3187 20.0973 18.6872 20.0973 18.2978 19.708L12 13.4101L5.70214 19.708C5.31283 20.0973 4.6813 20.0973 4.29199 19.708C3.90269 19.3187 3.90268 18.6871 4.29199 18.2978L10.5898 12L4.29199 5.70213C3.90267 5.31282 3.90267 4.68129 4.29199 4.29197C4.68131 3.90269 5.31284 3.90267 5.70214 4.29197L12 10.5898L18.2978 4.29197Z" fill="#0B1532"/>
</svg>
