<svg width="24" height="24" viewBox="0 0 24 24" fill="none" xmlns="http://www.w3.org/2000/svg">
<path d="M9 9C10.1046 9 11 9.89543 11 11V19C11 20.1046 10.1046 21 9 21H5C3.89543 21 3 20.1046 3 19V11C3 9.89543 3.89543 9 5 9H9Z" fill="#0B1532"/>
<path d="M19 16C20.1046 16 21 16.8954 21 18V19C21 20.1046 20.1046 21 19 21H15C13.8954 21 13 20.1046 13 19V18C13 16.8954 13.8954 16 15 16H19Z" fill="#0B1532"/>
<path d="M19 9C20.1046 9 21 9.89543 21 11V12C21 13.1046 20.1046 14 19 14H15C13.8954 14 13 13.1046 13 12V11C13 9.89543 13.8954 9 15 9H19Z" fill="#0B1532"/>
<path d="M19 3C20.1046 3 21 3.89543 21 5C21 6.10457 20.1046 7 19 7H5C3.89543 7 3 6.10457 3 5C3 3.89543 3.89543 3 5 3H19Z" fill="#0B1532"/>
</svg>
