<svg width="24" height="24" viewBox="0 0 24 24" fill="none" xmlns="http://www.w3.org/2000/svg">
<path d="M12 5H6C5.44772 5 5 5.44772 5 6V18C5 18.5523 5.44772 19 6 19H18C18.5523 19 19 18.5523 19 18V12L21 10V18L20.9961 18.1543C20.9184 19.6883 19.6883 20.9184 18.1543 20.9961L18 21H6C4.39489 21 3.08421 19.7394 3.00391 18.1543L3 18V6C3 4.34315 4.34315 3 6 3H14L12 5Z" fill="#0B1532"/>
<path fill-rule="evenodd" clip-rule="evenodd" d="M16.3689 3.22484C16.7616 2.90449 17.3406 2.9271 17.7067 3.2932L20.7067 6.2932C21.0973 6.68372 21.0973 7.31674 20.7067 7.70726L11.7067 16.7073C11.5538 16.8601 11.3553 16.9599 11.1413 16.9905L7.64132 17.4905C7.32982 17.5349 7.01518 17.4298 6.79269 17.2073C6.5702 16.9848 6.46507 16.6701 6.50948 16.3586L7.00948 12.8586L7.04562 12.7014C7.09359 12.5482 7.17812 12.4078 7.29269 12.2932L16.2927 3.2932L16.3689 3.22484Z" fill="#0B1532"/>
</svg>
