<svg width="24" height="24" viewBox="0 0 24 24" fill="none" xmlns="http://www.w3.org/2000/svg">
<path fill-rule="evenodd" clip-rule="evenodd" d="M7.5 4C8.80126 4 10.0036 4.13006 10.9062 4.33789C11.3056 4.42984 11.685 4.54809 12 4.69531C12.315 4.54809 12.6944 4.42984 13.0938 4.33789C13.9964 4.13006 15.1987 4 16.5 4H20C21.1046 4 22 4.89543 22 6V18C22 19.1046 21.1046 20 20 20H16.5C15.386 20 14.3632 20.2252 13.6113 20.4561C13.2379 20.5707 12.9378 20.6848 12.7344 20.7686C12.633 20.8103 12.5562 20.8447 12.5068 20.8672C12.4822 20.8784 12.4636 20.8866 12.4531 20.8916C12.4481 20.894 12.4434 20.8965 12.4434 20.8965L12.4443 20.8955C12.4425 20.8964 12.4403 20.8966 12.4385 20.8975C12.3636 20.934 12.2853 20.9607 12.2051 20.9775C12.1999 20.9786 12.1947 20.9795 12.1895 20.9805C12.1568 20.9868 12.1239 20.9911 12.0908 20.9941C12.0755 20.9955 12.0603 20.9964 12.0449 20.9971C12.0215 20.9981 11.9981 20.9986 11.9746 20.998C11.959 20.9977 11.9434 20.9972 11.9277 20.9961C11.8996 20.9941 11.8717 20.9907 11.8438 20.9863C11.8336 20.9847 11.8236 20.9824 11.8135 20.9805C11.7846 20.975 11.756 20.968 11.7275 20.96C11.7165 20.9568 11.7053 20.9547 11.6943 20.9512C11.6876 20.949 11.6806 20.9476 11.6738 20.9453L11.6279 20.9258C11.6079 20.9177 11.5879 20.9098 11.5684 20.9004L11.5557 20.8955L11.5566 20.8965L11.5469 20.8916C11.5364 20.8866 11.5178 20.8784 11.4932 20.8672C11.4438 20.8447 11.367 20.8103 11.2656 20.7686C11.0622 20.6848 10.7621 20.5707 10.3887 20.4561C9.6368 20.2252 8.614 20 7.5 20H4C2.89543 20 2 19.1046 2 18V6C2 4.89543 2.89543 4 4 4H7.5ZM16.5 6C15.316 6 14.268 6.11995 13.542 6.28711C13.3112 6.34025 13.1321 6.3952 13 6.44336V18.5518C13.0081 18.5492 13.0162 18.5465 13.0244 18.5439C13.9012 18.2748 15.1287 18 16.5 18H20V6H16.5Z" fill="#0B1532"/>
</svg>
