<svg width="24" height="24" viewBox="0 0 24 24" fill="none" xmlns="http://www.w3.org/2000/svg">
<path fill-rule="evenodd" clip-rule="evenodd" d="M15.5996 3.99997C16.9339 3.99997 18.4967 4.3686 19.7744 5.35739C21.1229 6.40108 21.9966 8.02119 22 10.125C22 12.635 20.111 15.0939 17.249 16.4355C15.2232 17.3851 14.2184 18.0906 13.7646 18.9414C13.417 19.593 12.7386 20 12 20C11.2614 20 10.583 19.593 10.2354 18.9414C9.78159 18.0906 8.77677 17.3851 6.75098 16.4355C3.89208 15.0953 2.00011 12.6377 2 10.1377C2 8.02712 2.87503 6.40397 4.22656 5.35935C5.50374 4.37233 7.06396 4.00485 8.39258 3.99997C9.35367 3.99645 10.5145 4.28074 11.5332 4.89548C11.6905 4.99038 11.8459 5.09698 12 5.21189C12.1542 5.09702 12.3104 4.99129 12.4678 4.89646C13.4864 4.2826 14.6443 4.00005 15.5996 3.99997ZM15.5996 5.99997C14.3996 6.00013 12.4 6.7502 12 8.62497V18C12.7001 16.6874 14.0127 15.8056 15.6699 14.9775L16.4004 14.625C18.8002 13.5 20 11.6249 20 10.125C19.9934 7.1219 17.5968 5.99997 15.5996 5.99997Z" fill="#FF4766"/>
</svg>
