<svg width="24" height="24" viewBox="0 0 24 24" fill="none" xmlns="http://www.w3.org/2000/svg">
<path d="M12 4C13.1046 4 14 4.89543 14 6V11H9C8.44772 11 8 11.4477 8 12C8 12.5523 8.44772 13 9 13H14V18C14 19.1046 13.1046 20 12 20H4C2.89543 20 2 19.1046 2 18V6C2 4.89543 2.89543 4 4 4H12Z" fill="black"/>
<path d="M16.293 7.29308C16.6835 6.90256 17.3165 6.90256 17.707 7.29308L21.707 11.2931C22.0975 11.6836 22.0975 12.3166 21.707 12.7071L17.707 16.7071C17.3165 17.0976 16.6835 17.0976 16.293 16.7071C15.9025 16.3166 15.9025 15.6836 16.293 15.2931L18.5859 13.0001H14V11.0001H18.5859L16.293 8.70715C15.9025 8.31664 15.9025 7.68361 16.293 7.29308Z" fill="black"/>
</svg>
