<svg width="24" height="24" viewBox="0 0 24 24" fill="none" xmlns="http://www.w3.org/2000/svg">
<path d="M12 2C13.6569 2 15 3.34315 15 5H20L20.2041 5.01074C21.2128 5.113 22 5.96435 22 7V18C22 19.0357 21.2128 19.887 20.2041 19.9893L20 20H4C2.96435 20 2.113 19.2128 2.01074 18.2041L2 18V7C2 5.89543 2.89543 5 4 5H9C9 3.34315 10.3431 2 12 2ZM4 18H20V7H4V18ZM12 4C11.4477 4 11 4.44772 11 5C11 5.55228 11.4477 6 12 6C12.5523 6 13 5.55228 13 5C13 4.44772 12.5523 4 12 4Z" fill="#0B1532"/>
<rect x="6" y="9" width="4" height="7" rx="2" stroke="#0B1532" stroke-width="2"/>
<path d="M17.1864 8.41879C17.5074 7.96938 18.1315 7.86536 18.5809 8.18637C19.0302 8.50742 19.1343 9.13155 18.8133 9.5809L16.7284 12.4998L18.8133 15.4188C19.1342 15.8682 19.0302 16.4923 18.5809 16.8133C18.1315 17.1343 17.5074 17.0302 17.1864 16.5809L15.4998 14.2196L13.8133 16.5809C13.4923 17.0302 12.8682 17.1342 12.4188 16.8133C11.9694 16.4923 11.8654 15.8682 12.1864 15.4188L14.2713 12.4998L12.1864 9.5809C11.8654 9.13149 11.9694 8.50738 12.4188 8.18637C12.8682 7.86539 13.4923 7.96939 13.8133 8.41879L15.4998 10.7791L17.1864 8.41879Z" fill="#0B1532"/>
</svg>
