<svg width="24" height="24" viewBox="0 0 24 24" fill="none" xmlns="http://www.w3.org/2000/svg">
<path d="M16 3C17.1046 3 18 3.89543 18 5C18 5.04171 17.9957 5.08294 17.9932 5.12402C19.7219 5.56566 21 7.13368 21 9V10C21 12.2091 19.2091 14 17 14H16.5225C15.693 15.6617 13.935 16.7512 12.4902 16.9609L13 19H15C16.1046 19 17 19.8954 17 21H7C7 19.8954 7.89543 19 9 19H11L11.5088 16.9609C10.0642 16.7509 8.30681 15.6614 7.47754 14H7L6.79395 13.9951C4.68056 13.8879 3 12.14 3 10V9C3 7.13401 4.2776 5.56598 6.00586 5.12402C6.00334 5.08296 6 5.04169 6 5C6 3.89543 6.89543 3 8 3H16ZM6.44238 7.08008C5.60933 7.32161 5 8.08908 5 9V10C5 11.1046 5.89543 12 7 12C7 10.3903 6.70923 8.49319 6.44238 7.08008ZM17.5566 7.08008C17.2898 8.49317 17 10.3903 17 12C18.1046 12 19 11.1046 19 10V9C19 8.08875 18.3902 7.32131 17.5566 7.08008Z" fill="#0B1532"/>
</svg>
