<svg width="24" height="24" viewBox="0 0 24 24" fill="none" xmlns="http://www.w3.org/2000/svg">
<path d="M11.293 4.29305C11.6836 3.90252 12.3166 3.90252 12.7071 4.29305C13.0976 4.68358 13.0976 5.31661 12.7071 5.70711L6.41414 12.0001L12.7071 18.293C13.0976 18.6836 13.0976 19.3166 12.7071 19.7071C12.3166 20.0976 11.6836 20.0976 11.293 19.7071L4.29304 12.7071C3.90252 12.3166 3.90252 11.6836 4.29304 11.293L11.293 4.29305Z" fill="#0B1532"/>
<path d="M18.293 4.29305C18.6836 3.90252 19.3166 3.90252 19.7071 4.29305C20.0976 4.68358 20.0976 5.31661 19.7071 5.70711L13.4141 12.0001L19.7071 18.293C20.0976 18.6836 20.0976 19.3166 19.7071 19.7071C19.3166 20.0976 18.6836 20.0976 18.293 19.7071L11.293 12.7071C10.9025 12.3166 10.9025 11.6836 11.293 11.293L18.293 4.29305Z" fill="#0B1532"/>
</svg>
