<svg width="24" height="24" viewBox="0 0 24 24" fill="none" xmlns="http://www.w3.org/2000/svg">
<path fill-rule="evenodd" clip-rule="evenodd" d="M20 18C20 18.5523 19.5523 19 19 19C18.4477 19 18 18.5523 18 18V17L17.7959 16.9893C16.8543 16.8938 16.1062 16.1457 16.0107 15.2041L16 15L16 10C16 8.89543 16.8954 8 18 8V6C18 5.44772 18.4477 5 19 5C19.5523 5 20 5.44772 20 6V8C21.1046 8 22 8.89543 22 10V15C22 16.0357 21.2128 16.887 20.2041 16.9893L20 17V18Z" fill="#0B1532"/>
<path fill-rule="evenodd" clip-rule="evenodd" d="M13 19C13 19.5523 12.5523 20 12 20C11.4477 20 11 19.5523 11 19V18C9.89543 18 9 17.1046 9 16V9L9.01074 8.7959C9.1062 7.85435 9.85435 7.1062 10.7959 7.01074L11 7V5C11 4.44772 11.4477 4 12 4C12.5523 4 13 4.44771 13 5V7L13.2041 7.01074C14.2128 7.113 15 7.96435 15 9V16C15 17.1046 14.1046 18 13 18V19ZM11 9V16H13V9H11Z" fill="#0B1532"/>
<path fill-rule="evenodd" clip-rule="evenodd" d="M6 17C6 17.5523 5.55228 18 5 18C4.44772 18 4 17.5523 4 17V16L3.7959 15.9893C2.85435 15.8938 2.1062 15.1457 2.01074 14.2041L2 14L2 11C2 9.89543 2.89543 9 4 9V7C4 6.44772 4.44772 6 5 6C5.55228 6 6 6.44772 6 7V9C7.10457 9 8 9.89543 8 11V14C8 15.0357 7.21278 15.887 6.2041 15.9893L6 16V17Z" fill="#0B1532"/>
</svg>
