<svg width="24" height="24" viewBox="0 0 24 24" fill="none" xmlns="http://www.w3.org/2000/svg">
<path d="M20.9996 6C21.5519 6 21.9996 6.44772 21.9996 7V11C21.9996 11.4044 21.7561 11.769 21.3825 11.9238C21.0088 12.0784 20.5785 11.993 20.2926 11.707L18.9996 10.4141L13.7067 15.707C13.3161 16.0974 12.6831 16.0975 12.2926 15.707L8.93811 12.3525L3.64026 16.7686C3.21602 17.1219 2.5846 17.0647 2.23108 16.6406C1.87777 16.2165 1.93508 15.585 2.35901 15.2314L8.35901 10.2314C8.75627 9.90039 9.34094 9.92742 9.70667 10.293L12.9996 13.5859L17.5856 9L16.2926 7.70703C16.0068 7.42107 15.9211 6.99075 16.0758 6.61719C16.2306 6.2437 16.5954 6.00015 16.9996 6H20.9996Z" fill="#0B1532"/>
</svg>
