<svg width="24" height="24" viewBox="0 0 24 24" fill="none" xmlns="http://www.w3.org/2000/svg">
<path d="M15.0586 4.00317C15.067 4.00367 15.0755 4.00343 15.084 4.00415L15.1504 4.01196C15.1589 4.01325 15.1673 4.01534 15.1758 4.01684C15.1918 4.01971 15.2077 4.02295 15.2236 4.02661C15.2509 4.03283 15.278 4.03959 15.3047 4.04809L21.3164 6.052C21.7245 6.18822 22 6.56994 22 7.00024V19.0002C21.9999 19.3216 21.8456 19.6239 21.585 19.8118C21.3242 19.9996 20.9885 20.0501 20.6836 19.9485L15 18.054L9.31641 19.9485C9.30945 19.9508 9.30191 19.9512 9.29492 19.9534C9.27485 19.9595 9.25476 19.9651 9.23438 19.97C9.21387 19.9749 9.19352 19.98 9.17285 19.9836C9.15436 19.9869 9.13583 19.9893 9.11719 19.9915C9.09766 19.9938 9.07816 19.9952 9.05859 19.9963C9.03906 19.9975 9.0196 19.9983 9 19.9983C8.98008 19.9983 8.96028 19.9975 8.94043 19.9963C8.92086 19.9952 8.90136 19.9938 8.88184 19.9915C8.8632 19.9893 8.84465 19.9869 8.82617 19.9836C8.80582 19.98 8.78582 19.9748 8.76562 19.97C8.74624 19.9653 8.7271 19.9602 8.70801 19.9543C8.70003 19.9519 8.69153 19.9511 8.68359 19.9485L2.68359 17.9485C2.27549 17.8123 2.0001 17.4305 2 17.0002V5.00024C2 4.67886 2.15436 4.37668 2.41504 4.18872C2.67581 4.00077 3.01146 3.95035 3.31641 4.052L9 5.94653L14.6836 4.052C14.6872 4.0508 14.6907 4.04925 14.6943 4.04809C14.721 4.03956 14.7481 4.03285 14.7754 4.02661C14.7913 4.02293 14.8072 4.01972 14.8232 4.01684C14.8427 4.01337 14.8622 4.01037 14.8818 4.00805C14.9014 4.00572 14.9209 4.00435 14.9404 4.00317C14.9489 4.00267 14.9573 4.0015 14.9658 4.00122H15.0342C15.0423 4.00149 15.0504 4.0027 15.0586 4.00317ZM10 7.71997V17.6125L14 16.2795V6.38696L10 7.71997ZM16 16.2795L20 17.6125V7.71997L16 6.38696V16.2795Z" fill="#0B1532"/>
</svg>
