<svg width="85" height="78" viewBox="0 0 85 78" fill="none" xmlns="http://www.w3.org/2000/svg">
<path d="M42.096 -7.62939e-06C18.8467 -7.62939e-06 0 14.8987 0 33.2787C0 45.2413 7.98533 55.728 19.9707 61.5933C19.0907 64.8787 16.7813 73.5 16.3213 75.344C15.7493 77.6333 17.1573 77.604 18.0827 76.9907C18.808 76.5067 29.6173 69.1547 34.2813 65.9827C36.8147 66.3587 39.4253 66.5573 42.096 66.5573C65.3453 66.5573 84.192 51.66 84.192 33.2787C84.192 14.8987 65.3453 -7.62939e-06 42.096 -7.62939e-06Z" fill="#371C1D"/>
<path d="M12.7285 27.1524H17.0618C17.0618 27.1524 17.0885 39.0537 17.0658 41.827C17.0712 43.8497 21.5725 43.8777 21.5672 41.8564L21.5858 27.307C21.5858 27.307 23.0378 27.3177 25.8978 27.319C28.5912 27.319 28.5938 23.0844 25.9005 23.0817C22.8658 23.0817 12.7232 22.9977 12.7232 22.9977C10.1805 23.0017 10.1885 27.1524 12.7285 27.1524Z" fill="#F8E049"/>
<path d="M30.7647 24.3837C29.6981 26.7317 25.8474 37.8197 24.5687 40.761C23.6434 42.8877 27.6301 44.621 28.5554 42.4957L29.4221 39.4637H37.3514C37.3514 39.4637 37.0781 39.5877 38.1314 42.3664C38.9834 44.6144 43.1007 43.057 42.2461 40.8064C41.0287 37.5917 36.8181 26.0224 36.0501 24.3837C35.6967 23.625 34.4261 23.0837 33.1967 23.0837C32.1794 23.0837 31.1874 23.4544 30.7647 24.3837ZM33.4661 27.9224L35.8767 35.477H30.8514L33.4661 27.9224Z" fill="#F8E049"/>
<path d="M43.7646 25.0775C43.7726 28.8468 43.786 40.9908 43.786 40.9908C43.786 40.9908 43.438 43.4055 45.5073 43.4055C47.578 43.4055 52.17 43.3828 54.2073 43.3828C56.2433 43.3828 56.2326 39.0508 54.1966 39.0508C52.1593 39.0508 48.4433 39.0295 48.4433 39.0295C48.4433 39.0295 48.4606 27.7948 48.4553 25.0668C48.4513 23.7468 47.282 23.0868 46.1113 23.0868C44.9366 23.0868 43.762 23.7508 43.7646 25.0775Z" fill="#F8E049"/>
<path d="M56.7861 24.4782C56.8315 26.1302 56.7328 41.0742 56.7341 42.1808C56.7355 43.9288 61.1835 43.9248 61.1821 42.1782C61.1821 40.1488 61.1821 36.2995 61.1821 36.2995L62.4888 35.2515L68.2008 43.0462C69.3568 44.5688 72.9888 41.8168 71.8355 40.2942L65.7701 32.3048C65.7701 32.3048 69.8875 27.8515 71.5101 26.2382C72.4568 25.2982 69.5248 22.3448 68.5781 23.2875C67.6608 24.1968 61.2115 30.6542 61.2115 30.6542C61.2115 30.6542 61.2688 26.5995 61.2088 24.3582C61.1861 23.5075 60.1421 23.0955 59.0741 23.0955C57.9315 23.0955 56.7621 23.5675 56.7861 24.4782Z" fill="#F8E049"/>
</svg>
