<svg width="156" height="32" viewBox="0 0 156 32" fill="none" xmlns="http://www.w3.org/2000/svg">
<path d="M24.8164 14.8571H37.6736L32.7754 21.7143H19.9182L12.5714 32H0L22.8571 0H35.4286L24.8164 14.8571Z" fill="url(#paint0_radial_303_7)"/>
<path d="M64 32H14L20.5307 22.8571H44.8979L44.0815 21.7143H34.204L39.1021 14.8571H51.755L64 32Z" fill="url(#paint1_radial_303_7)"/>
<path d="M44.8979 9.14286H30.3265L36.8571 0H51.4286L44.8979 9.14286Z" fill="url(#paint2_radial_303_7)"/>
<path d="M77.1984 10.0349H70.8231V7.86139H77.1984V10.0349ZM78.0981 5.15693H70.0165V14.8963H68V4.08676C68 3.93744 68.0259 3.79641 68.0776 3.66367C68.1293 3.53094 68.1991 3.41479 68.287 3.31524C68.38 3.21569 68.4886 3.13826 68.6127 3.08296C68.7368 3.02765 68.8712 3 69.016 3H78.0981V5.15693Z" fill="url(#paint3_radial_303_7)"/>
<path d="M80.0811 14.8963H78.8208V7.46111H80.0811V14.8963Z" fill="url(#paint4_radial_303_7)"/>
<path d="M88.2032 14.3208C88.2032 14.4176 88.1855 14.5074 88.1499 14.5904C88.1176 14.6733 88.0724 14.7459 88.0142 14.8082C87.9593 14.8669 87.893 14.9136 87.8154 14.9482C87.7379 14.9827 87.6555 15 87.5682 15C87.4907 15 87.4115 14.9844 87.3307 14.9533C87.2532 14.9222 87.1837 14.8721 87.1223 14.803L82.5172 9.65952V14.8963H81.2569V8.03664C81.2569 7.89838 81.2925 7.77394 81.3636 7.66333C81.4379 7.54926 81.5316 7.46457 81.6447 7.40926C81.7643 7.35741 81.8871 7.34532 82.0131 7.37297C82.1391 7.39717 82.2474 7.45939 82.3379 7.55963L86.9429 12.6979V7.46111H88.2032V14.3208Z" fill="url(#paint5_radial_303_7)"/>
<path d="M100.501 11.3954C100.501 11.8213 100.449 12.2057 100.346 12.5486C100.248 12.8859 100.116 13.1846 99.9502 13.4445C99.7848 13.7045 99.5909 13.9257 99.3685 14.1082C99.1462 14.2907 98.9161 14.44 98.6783 14.5562C98.4404 14.6723 98.1974 14.758 97.9492 14.8133C97.7062 14.8686 97.4761 14.8963 97.2589 14.8963H89.4798V12.7394H97.2589C97.6467 12.7394 97.9466 12.6177 98.1586 12.3744C98.3758 12.131 98.4844 11.8047 98.4844 11.3954C98.4844 11.1963 98.4559 11.0138 98.3991 10.8479C98.3422 10.682 98.2594 10.5382 98.1509 10.4165C98.0475 10.2949 97.9182 10.2008 97.7631 10.1345C97.6131 10.0681 97.4451 10.0349 97.2589 10.0349H92.621C92.2952 10.0349 91.9436 9.97408 91.5662 9.8524C91.1887 9.7252 90.8371 9.52333 90.5114 9.2468C90.1908 8.97027 89.9219 8.60802 89.7048 8.16004C89.4928 7.71206 89.3868 7.16454 89.3868 6.51746C89.3868 5.87038 89.4928 5.32561 89.7048 4.88317C89.9219 4.43519 90.1908 4.07293 90.5114 3.79641C90.8371 3.51435 91.1887 3.31248 91.5662 3.19081C91.9436 3.0636 92.2952 3 92.621 3H99.4849V5.15693H92.621C92.2383 5.15693 91.9384 5.28137 91.7213 5.53025C91.5093 5.77912 91.4033 6.10819 91.4033 6.51746C91.4033 6.93225 91.5093 7.26132 91.7213 7.50467C91.9384 7.74248 92.2383 7.86139 92.621 7.86139H97.2745C97.4916 7.86692 97.7217 7.9001 97.9647 7.96094C98.2077 8.01625 98.4482 8.10474 98.686 8.22641C98.929 8.34808 99.1591 8.50294 99.3763 8.69098C99.5935 8.87349 99.7848 9.09471 99.9502 9.35465C100.121 9.61459 100.255 9.91324 100.354 10.2506C100.452 10.588 100.501 10.9696 100.501 11.3954Z" fill="url(#paint6_radial_303_7)"/>
<path d="M102.53 14.8963H101.27V7.46111H102.53V14.8963Z" fill="url(#paint7_radial_303_7)"/>
<path d="M110.565 14.2171C110.565 14.3139 110.549 14.4037 110.517 14.4867C110.485 14.5697 110.439 14.6422 110.381 14.7045C110.326 14.7632 110.26 14.8099 110.182 14.8445C110.105 14.879 110.021 14.8963 109.93 14.8963H105.383C105.267 14.8963 105.141 14.8825 105.005 14.8548C104.873 14.8237 104.74 14.777 104.608 14.7148C104.479 14.6526 104.354 14.5731 104.235 14.4763C104.115 14.3761 104.008 14.2568 103.915 14.1186C103.824 13.9768 103.751 13.8144 103.697 13.6312C103.642 13.4445 103.614 13.2354 103.614 13.0038V9.35361C103.614 9.22917 103.627 9.09609 103.653 8.95437C103.682 8.8092 103.726 8.66747 103.784 8.52921C103.842 8.38749 103.918 8.25268 104.012 8.12478C104.105 7.99689 104.217 7.88455 104.346 7.78776C104.479 7.68752 104.63 7.60802 104.802 7.54926C104.973 7.49049 105.167 7.46111 105.383 7.46111H110.507V8.80919H105.383C105.219 8.80919 105.093 8.85586 105.005 8.94919C104.918 9.04252 104.874 9.18078 104.874 9.36398V13.0038C104.874 13.1766 104.918 13.3114 105.005 13.4082C105.096 13.5016 105.222 13.5482 105.383 13.5482H109.305V11.8579H105.951V10.4995H109.93C110.021 10.4995 110.105 10.5185 110.182 10.5565C110.26 10.5911 110.326 10.6395 110.381 10.7017C110.439 10.7639 110.485 10.8365 110.517 10.9195C110.549 10.999 110.565 11.0854 110.565 11.1787V14.2171Z" fill="url(#paint8_radial_303_7)"/>
<path d="M112.851 10.4995H117.277V7.46111H118.537V14.8963H117.277V11.8579H112.851V14.8963H111.591V7.46111H112.851V10.4995Z" fill="url(#paint9_radial_303_7)"/>
<path d="M126 8.80919H123.222V14.8963H121.962V8.80919H119.18V7.46111H126V8.80919Z" fill="url(#paint10_radial_303_7)"/>
<path d="M76.9004 25.8203H72.8848V29H71.9941V25.8203H68V25.0615H76.9004V25.8203Z" fill="url(#paint11_radial_303_7)"/>
<path d="M87.0586 23.0596H88.665V23.8291H87.0586V29H86.1572V19.0439H87.0586V23.0596Z" fill="url(#paint12_radial_303_7)"/>
<path d="M103.688 29H102.786V26.5576H97.3057V25.8096H103.688V29Z" fill="url(#paint13_radial_303_7)"/>
<path d="M141.088 25.623C141.088 25.887 141.146 26.1365 141.262 26.3711C141.385 26.6057 141.551 26.826 141.761 27.0312C141.971 27.2366 142.213 27.4197 142.488 27.5811C142.77 27.7423 143.074 27.8817 143.399 27.999C143.732 28.109 144.069 28.1899 144.409 28.2412L144.051 28.9561C143.559 28.8754 143.088 28.7361 142.64 28.5381C142.198 28.3475 141.801 28.1091 141.446 27.8232C141.108 27.5443 140.838 27.2267 140.637 26.8711C140.436 27.2264 140.164 27.5445 139.818 27.8232C139.471 28.1093 139.073 28.3474 138.624 28.5381C138.183 28.7361 137.716 28.8754 137.224 28.9561L136.866 28.2412C137.206 28.1899 137.539 28.109 137.864 27.999C138.197 27.8817 138.501 27.7424 138.776 27.5811C139.059 27.4197 139.305 27.2366 139.515 27.0312C139.724 26.8259 139.887 26.6057 140.003 26.3711C140.126 26.1365 140.187 25.887 140.188 25.623V25.3701H141.088V25.623Z" fill="url(#paint14_radial_303_7)"/>
<path d="M131.853 27.2734H126.101V28.1865H132.146V28.8906H125.221V26.6133H130.974V25.7656H125.199V25.084H131.853V27.2734Z" fill="url(#paint15_radial_303_7)"/>
<path fill-rule="evenodd" clip-rule="evenodd" d="M109.58 26.1621H114.388V25.0176H115.278V28.8682H108.689V25.0176H109.58V26.1621ZM109.58 28.1309H114.388V26.877H109.58V28.1309Z" fill="url(#paint16_radial_303_7)"/>
<path fill-rule="evenodd" clip-rule="evenodd" d="M154.914 28.8682H148.218V25.7324H154.914V28.8682ZM149.097 28.1201H154.035V26.459H149.097V28.1201Z" fill="url(#paint17_radial_303_7)"/>
<path d="M84.9961 20.8262H82.8252V22.0801C82.8252 22.4761 82.8868 22.876 83.0098 23.2793C83.14 23.6827 83.3212 24.0679 83.5527 24.4346C83.7842 24.8012 84.0516 25.1315 84.3555 25.4248C84.6666 25.7108 84.9964 25.9421 85.3438 26.1182L84.833 26.8438C84.4497 26.6457 84.0915 26.3817 83.7588 26.0518C83.426 25.7144 83.1366 25.3326 82.8906 24.9072C82.6873 24.5557 82.5227 24.1836 82.3936 23.792C82.2533 24.2389 82.0704 24.6663 81.8379 25.0723C81.5847 25.5195 81.2917 25.9195 80.959 26.2715C80.6261 26.6162 80.2673 26.8879 79.8838 27.0859L79.3525 26.3594C79.707 26.1834 80.036 25.9451 80.3398 25.6445C80.651 25.3365 80.9263 24.9883 81.165 24.5996C81.4038 24.2036 81.592 23.7926 81.7295 23.3672C81.8669 22.9346 81.9355 22.5054 81.9355 22.0801V20.8262H79.6992V20.0674H84.9961V20.8262Z" fill="url(#paint18_radial_303_7)"/>
<path d="M143.899 25.8203H143.042V22.3994H141.718V24.9629H140.871V19.2422H141.718V21.6514H143.042V19.0547H143.899V25.8203Z" fill="url(#paint19_radial_303_7)"/>
<path d="M103.688 21.7939H105.131V22.5537H103.688V25.2705H102.786V19.0439H103.688V21.7939Z" fill="url(#paint20_radial_303_7)"/>
<path fill-rule="evenodd" clip-rule="evenodd" d="M98.9873 21.3545C99.4503 21.3545 99.8594 21.4276 100.214 21.5742C100.568 21.7209 100.844 21.9298 101.039 22.2012C101.234 22.4652 101.332 22.7807 101.332 23.1475C101.332 23.5142 101.234 23.8297 101.039 24.0938C100.844 24.3577 100.568 24.5667 100.214 24.7207C99.8594 24.8673 99.4503 24.9404 98.9873 24.9404C98.5244 24.9404 98.1152 24.8674 97.7607 24.7207C97.4065 24.5668 97.1283 24.3576 96.9258 24.0938C96.7304 23.8297 96.6328 23.5142 96.6328 23.1475C96.6328 22.7807 96.7304 22.4652 96.9258 22.2012C97.1283 21.93 97.4065 21.7209 97.7607 21.5742C98.1152 21.4276 98.5244 21.3545 98.9873 21.3545ZM98.9873 22.0586C98.5388 22.0586 98.1772 22.1575 97.9023 22.3555C97.6347 22.5462 97.501 22.8101 97.501 23.1475C97.501 23.4775 97.6346 23.7414 97.9023 23.9395C98.1772 24.1301 98.5389 24.2255 98.9873 24.2256C99.4287 24.2256 99.7875 24.1301 100.062 23.9395C100.337 23.7415 100.475 23.4774 100.475 23.1475C100.475 22.8102 100.337 22.5461 100.062 22.3555C99.7948 22.1574 99.4359 22.0586 98.9873 22.0586Z" fill="url(#paint21_radial_303_7)"/>
<path d="M139.742 22.6191H136.942V24.0801C137.318 24.078 137.669 24.0728 137.995 24.0605C138.393 24.0459 138.78 24.0166 139.156 23.9727C139.532 23.9286 139.916 23.8624 140.307 23.7744L140.404 24.5117C139.992 24.5924 139.593 24.6542 139.21 24.6982C138.827 24.7422 138.432 24.7724 138.027 24.7871C137.622 24.8018 137.184 24.8086 136.714 24.8086H136.073V21.9258H138.874V20.5732H136.052V19.8252H139.742V22.6191Z" fill="url(#paint22_radial_303_7)"/>
<path fill-rule="evenodd" clip-rule="evenodd" d="M155.153 20.1113H153.677V22.1797H155.121V22.9277H152.006V24.0605H156V24.7979H147.133V24.0605H151.104V22.9277H147.99V22.1797H149.434V20.1113H147.957V19.3633H155.153V20.1113ZM150.334 20.1113V22.1797H152.776V20.1113H150.334Z" fill="url(#paint23_radial_303_7)"/>
<path d="M116.439 24.3242H107.572V23.5762H116.439V24.3242Z" fill="url(#paint24_radial_303_7)"/>
<path d="M132.992 24.2148H124.125V23.4775H132.992V24.2148Z" fill="url(#paint25_radial_303_7)"/>
<path d="M75.793 20.2432H70.0732V21.3867H75.5654V22.1133H70.0732V23.3125H75.9014V24.0498H69.1943V19.5059H75.793V20.2432Z" fill="url(#paint26_radial_303_7)"/>
<path d="M112.467 19.6045C112.467 19.8465 112.528 20.0856 112.651 20.3203C112.782 20.5476 112.959 20.7635 113.184 20.9688C113.408 21.1668 113.665 21.3465 113.954 21.5078C114.251 21.6691 114.566 21.8084 114.898 21.9258C115.238 22.0357 115.582 22.1132 115.929 22.1572L115.604 22.8838C115.198 22.8178 114.804 22.7179 114.421 22.5859C114.045 22.4539 113.689 22.2888 113.356 22.0908C113.031 21.8855 112.741 21.655 112.488 21.3984C112.299 21.2007 112.14 20.9894 112.011 20.7656C111.878 20.9973 111.713 21.216 111.512 21.4199C111.266 21.6692 110.976 21.8928 110.644 22.0908C110.318 22.2888 109.963 22.4539 109.58 22.5859C109.204 22.718 108.812 22.8178 108.407 22.8838L108.071 22.1572C108.426 22.1059 108.77 22.025 109.103 21.915C109.442 21.805 109.761 21.6735 110.058 21.5195C110.354 21.3582 110.615 21.1784 110.839 20.9805C111.063 20.7752 111.236 20.5583 111.359 20.3311C111.482 20.0964 111.544 19.8539 111.544 19.6045V19.1543H112.467V19.6045Z" fill="url(#paint27_radial_303_7)"/>
<path fill-rule="evenodd" clip-rule="evenodd" d="M132.146 20.0557H130.67V21.9482H132.113V22.6523H124.982V21.9482H126.426V20.0557H124.949V19.3516H132.146V20.0557ZM127.326 21.9482H129.769V20.0557H127.326V21.9482Z" fill="url(#paint28_radial_303_7)"/>
<path d="M99.4434 20.0996H101.886V20.8369H96.0898V20.0996H98.543V19H99.4434V20.0996Z" fill="url(#paint29_radial_303_7)"/>
<defs>
<radialGradient id="paint0_radial_303_7" cx="0" cy="0" r="1" gradientUnits="userSpaceOnUse" gradientTransform="translate(14.5714 31.5714) rotate(-40.693) scale(48.422 79.2185)">
<stop offset="0.515304" stop-color="white"/>
<stop offset="0.893834" stop-color="#001F7A"/>
</radialGradient>
<radialGradient id="paint1_radial_303_7" cx="0" cy="0" r="1" gradientUnits="userSpaceOnUse" gradientTransform="translate(14.5714 31.5714) rotate(-40.693) scale(48.422 79.2185)">
<stop offset="0.515304" stop-color="white"/>
<stop offset="0.893834" stop-color="#001F7A"/>
</radialGradient>
<radialGradient id="paint2_radial_303_7" cx="0" cy="0" r="1" gradientUnits="userSpaceOnUse" gradientTransform="translate(14.5714 31.5714) rotate(-40.693) scale(48.422 79.2185)">
<stop offset="0.515304" stop-color="white"/>
<stop offset="0.893834" stop-color="#001F7A"/>
</radialGradient>
<radialGradient id="paint3_radial_303_7" cx="0" cy="0" r="1" gradientTransform="matrix(29.6444 -26.6667 48.3788 57.5541 25.4667 27)" gradientUnits="userSpaceOnUse">
<stop offset="0.515304" stop-color="white"/>
<stop offset="0.893834" stop-color="white"/>
</radialGradient>
<radialGradient id="paint4_radial_303_7" cx="0" cy="0" r="1" gradientTransform="matrix(29.6444 -26.6667 48.3788 57.5541 25.4667 27)" gradientUnits="userSpaceOnUse">
<stop offset="0.515304" stop-color="white"/>
<stop offset="0.893834" stop-color="white"/>
</radialGradient>
<radialGradient id="paint5_radial_303_7" cx="0" cy="0" r="1" gradientTransform="matrix(29.6444 -26.6667 48.3788 57.5541 25.4667 27)" gradientUnits="userSpaceOnUse">
<stop offset="0.515304" stop-color="white"/>
<stop offset="0.893834" stop-color="white"/>
</radialGradient>
<radialGradient id="paint6_radial_303_7" cx="0" cy="0" r="1" gradientTransform="matrix(29.6444 -26.6667 48.3788 57.5541 25.4667 27)" gradientUnits="userSpaceOnUse">
<stop offset="0.515304" stop-color="white"/>
<stop offset="0.893834" stop-color="white"/>
</radialGradient>
<radialGradient id="paint7_radial_303_7" cx="0" cy="0" r="1" gradientTransform="matrix(29.6444 -26.6667 48.3788 57.5541 25.4667 27)" gradientUnits="userSpaceOnUse">
<stop offset="0.515304" stop-color="white"/>
<stop offset="0.893834" stop-color="white"/>
</radialGradient>
<radialGradient id="paint8_radial_303_7" cx="0" cy="0" r="1" gradientTransform="matrix(29.6444 -26.6667 48.3788 57.5541 25.4667 27)" gradientUnits="userSpaceOnUse">
<stop offset="0.515304" stop-color="white"/>
<stop offset="0.893834" stop-color="white"/>
</radialGradient>
<radialGradient id="paint9_radial_303_7" cx="0" cy="0" r="1" gradientTransform="matrix(29.6444 -26.6667 48.3788 57.5541 25.4667 27)" gradientUnits="userSpaceOnUse">
<stop offset="0.515304" stop-color="white"/>
<stop offset="0.893834" stop-color="white"/>
</radialGradient>
<radialGradient id="paint10_radial_303_7" cx="0" cy="0" r="1" gradientTransform="matrix(29.6444 -26.6667 48.3788 57.5541 25.4667 27)" gradientUnits="userSpaceOnUse">
<stop offset="0.515304" stop-color="white"/>
<stop offset="0.893834" stop-color="white"/>
</radialGradient>
<radialGradient id="paint11_radial_303_7" cx="0" cy="0" r="1" gradientUnits="userSpaceOnUse" gradientTransform="translate(0.999988 33) rotate(-41.0091) scale(60.959 114.406)">
<stop offset="0.515304" stop-color="white"/>
<stop offset="0.893834" stop-color="white"/>
</radialGradient>
<radialGradient id="paint12_radial_303_7" cx="0" cy="0" r="1" gradientUnits="userSpaceOnUse" gradientTransform="translate(0.999988 33) rotate(-41.0091) scale(60.959 114.406)">
<stop offset="0.515304" stop-color="white"/>
<stop offset="0.893834" stop-color="white"/>
</radialGradient>
<radialGradient id="paint13_radial_303_7" cx="0" cy="0" r="1" gradientUnits="userSpaceOnUse" gradientTransform="translate(0.999988 33) rotate(-41.0091) scale(60.959 114.406)">
<stop offset="0.515304" stop-color="white"/>
<stop offset="0.893834" stop-color="white"/>
</radialGradient>
<radialGradient id="paint14_radial_303_7" cx="0" cy="0" r="1" gradientUnits="userSpaceOnUse" gradientTransform="translate(0.999988 33) rotate(-41.0091) scale(60.959 114.406)">
<stop offset="0.515304" stop-color="white"/>
<stop offset="0.893834" stop-color="white"/>
</radialGradient>
<radialGradient id="paint15_radial_303_7" cx="0" cy="0" r="1" gradientUnits="userSpaceOnUse" gradientTransform="translate(0.999988 33) rotate(-41.0091) scale(60.959 114.406)">
<stop offset="0.515304" stop-color="white"/>
<stop offset="0.893834" stop-color="white"/>
</radialGradient>
<radialGradient id="paint16_radial_303_7" cx="0" cy="0" r="1" gradientUnits="userSpaceOnUse" gradientTransform="translate(0.999988 33) rotate(-41.0091) scale(60.959 114.406)">
<stop offset="0.515304" stop-color="white"/>
<stop offset="0.893834" stop-color="white"/>
</radialGradient>
<radialGradient id="paint17_radial_303_7" cx="0" cy="0" r="1" gradientUnits="userSpaceOnUse" gradientTransform="translate(0.999988 33) rotate(-41.0091) scale(60.959 114.406)">
<stop offset="0.515304" stop-color="white"/>
<stop offset="0.893834" stop-color="white"/>
</radialGradient>
<radialGradient id="paint18_radial_303_7" cx="0" cy="0" r="1" gradientUnits="userSpaceOnUse" gradientTransform="translate(0.999988 33) rotate(-41.0091) scale(60.959 114.406)">
<stop offset="0.515304" stop-color="white"/>
<stop offset="0.893834" stop-color="white"/>
</radialGradient>
<radialGradient id="paint19_radial_303_7" cx="0" cy="0" r="1" gradientUnits="userSpaceOnUse" gradientTransform="translate(0.999988 33) rotate(-41.0091) scale(60.959 114.406)">
<stop offset="0.515304" stop-color="white"/>
<stop offset="0.893834" stop-color="white"/>
</radialGradient>
<radialGradient id="paint20_radial_303_7" cx="0" cy="0" r="1" gradientUnits="userSpaceOnUse" gradientTransform="translate(0.999988 33) rotate(-41.0091) scale(60.959 114.406)">
<stop offset="0.515304" stop-color="white"/>
<stop offset="0.893834" stop-color="white"/>
</radialGradient>
<radialGradient id="paint21_radial_303_7" cx="0" cy="0" r="1" gradientUnits="userSpaceOnUse" gradientTransform="translate(0.999988 33) rotate(-41.0091) scale(60.959 114.406)">
<stop offset="0.515304" stop-color="white"/>
<stop offset="0.893834" stop-color="white"/>
</radialGradient>
<radialGradient id="paint22_radial_303_7" cx="0" cy="0" r="1" gradientUnits="userSpaceOnUse" gradientTransform="translate(0.999988 33) rotate(-41.0091) scale(60.959 114.406)">
<stop offset="0.515304" stop-color="white"/>
<stop offset="0.893834" stop-color="white"/>
</radialGradient>
<radialGradient id="paint23_radial_303_7" cx="0" cy="0" r="1" gradientUnits="userSpaceOnUse" gradientTransform="translate(0.999988 33) rotate(-41.0091) scale(60.959 114.406)">
<stop offset="0.515304" stop-color="white"/>
<stop offset="0.893834" stop-color="white"/>
</radialGradient>
<radialGradient id="paint24_radial_303_7" cx="0" cy="0" r="1" gradientUnits="userSpaceOnUse" gradientTransform="translate(0.999988 33) rotate(-41.0091) scale(60.959 114.406)">
<stop offset="0.515304" stop-color="white"/>
<stop offset="0.893834" stop-color="white"/>
</radialGradient>
<radialGradient id="paint25_radial_303_7" cx="0" cy="0" r="1" gradientUnits="userSpaceOnUse" gradientTransform="translate(0.999988 33) rotate(-41.0091) scale(60.959 114.406)">
<stop offset="0.515304" stop-color="white"/>
<stop offset="0.893834" stop-color="white"/>
</radialGradient>
<radialGradient id="paint26_radial_303_7" cx="0" cy="0" r="1" gradientUnits="userSpaceOnUse" gradientTransform="translate(0.999988 33) rotate(-41.0091) scale(60.959 114.406)">
<stop offset="0.515304" stop-color="white"/>
<stop offset="0.893834" stop-color="white"/>
</radialGradient>
<radialGradient id="paint27_radial_303_7" cx="0" cy="0" r="1" gradientUnits="userSpaceOnUse" gradientTransform="translate(0.999988 33) rotate(-41.0091) scale(60.959 114.406)">
<stop offset="0.515304" stop-color="white"/>
<stop offset="0.893834" stop-color="white"/>
</radialGradient>
<radialGradient id="paint28_radial_303_7" cx="0" cy="0" r="1" gradientUnits="userSpaceOnUse" gradientTransform="translate(0.999988 33) rotate(-41.0091) scale(60.959 114.406)">
<stop offset="0.515304" stop-color="white"/>
<stop offset="0.893834" stop-color="white"/>
</radialGradient>
<radialGradient id="paint29_radial_303_7" cx="0" cy="0" r="1" gradientUnits="userSpaceOnUse" gradientTransform="translate(0.999988 33) rotate(-41.0091) scale(60.959 114.406)">
<stop offset="0.515304" stop-color="white"/>
<stop offset="0.893834" stop-color="white"/>
</radialGradient>
</defs>
</svg>
